<?xml version="1.0" encoding="utf-8"?>
<!-- Generator: Adobe Illustrator 26.2.1, SVG Export Plug-In . SVG Version: 6.00 Build 0)  -->
<svg version="1.1" id="图层_1" xmlns="http://www.w3.org/2000/svg" xmlns:xlink="http://www.w3.org/1999/xlink" x="0px" y="0px"
	 viewBox="0 0 1920 1080" style="enable-background:new 0 0 1920 1080;" xml:space="preserve">
<style type="text/css">
	.st0{clip-path:url(#SVGID_00000029026154455280648010000005538567040820916866_);}
	
		.st1{clip-path:url(#SVGID_00000064315974716017623690000007298095199790608779_);fill:url(#SVGID_00000003105045877606941270000009348632993645026746_);}
	
		.st2{clip-path:url(#SVGID_00000170280798875456919100000010628304888979706512_);fill:url(#SVGID_00000153690093818805161820000004624630524341700514_);}
	.st3{clip-path:url(#SVGID_00000006684213712411265310000014994831065024440704_);fill:#FFFFFF;}
	.st4{fill:#1A1A1A;}
	.st5{fill:#272727;}
	.st6{fill:#343434;}
	.st7{fill:#414141;}
	.st8{fill:#747474;}
	.st9{fill:#8C8C8C;}
</style>
<g>
	<g>
		<defs>
			<rect id="SVGID_1_" x="77" y="338" width="401" height="401"/>
		</defs>
		<clipPath id="SVGID_00000034072274116108435540000005253180379226173582_">
			<use xlink:href="#SVGID_1_"  style="overflow:visible;"/>
		</clipPath>
		<g style="clip-path:url(#SVGID_00000034072274116108435540000005253180379226173582_);">
			<defs>
				<path id="SVGID_00000061429716665494968570000007274510045261958787_" d="M89.53,437.75v209.84
					c0.14,37.08,25.96,69.11,62.15,77.13c-3.34,2.36,91.46,2.07,159.49,1.8c36.81-0.16,65.78-0.31,67.14-0.04
					c6.92-0.02,12.52-5.65,12.5-12.56c-0.02-6.92-5.64-12.52-12.56-12.5H168.42c-29.64-0.21-53.61-24.18-53.82-53.82V437.75
					c0-6.92-5.61-12.53-12.53-12.53S89.53,430.83,89.53,437.75"/>
			</defs>
			<clipPath id="SVGID_00000051376361049199669770000003039952577508302230_">
				<use xlink:href="#SVGID_00000061429716665494968570000007274510045261958787_"  style="overflow:visible;"/>
			</clipPath>
			
				<linearGradient id="SVGID_00000170960372507131761640000001278503464287914941_" gradientUnits="userSpaceOnUse" x1="1.5963" y1="10.9819" x2="7.862" y2="10.9819" gradientTransform="matrix(54.8325 0 0 54.8325 2 -26.022)">
				<stop  offset="0" style="stop-color:#84BDFE"/>
				<stop  offset="0.9938" style="stop-color:#6ACAF0"/>
				<stop  offset="1" style="stop-color:#6ACAF0"/>
			</linearGradient>
			
				<rect x="89.53" y="425.22" style="clip-path:url(#SVGID_00000051376361049199669770000003039952577508302230_);fill:url(#SVGID_00000170960372507131761640000001278503464287914941_);" width="301.3" height="301.85"/>
		</g>
		<g style="clip-path:url(#SVGID_00000034072274116108435540000005253180379226173582_);">
			<defs>
				<path id="SVGID_00000073719681603539509590000006634155204148441265_" d="M176,350.53c-18.88,0.03-34.17,15.33-34.21,34.21V640
					c0.04,18.88,15.33,34.17,34.21,34.21h255.26c18.88-0.04,34.18-15.33,34.21-34.21V384.74c-0.03-18.88-15.33-34.18-34.21-34.21
					H176z"/>
			</defs>
			<clipPath id="SVGID_00000141427836456062779410000015546593957902124169_">
				<use xlink:href="#SVGID_00000073719681603539509590000006634155204148441265_"  style="overflow:visible;"/>
			</clipPath>
			
				<linearGradient id="SVGID_00000040562677975369722890000002688009448438587568_" gradientUnits="userSpaceOnUse" x1="1.6663" y1="10.0612" x2="7.9319" y2="10.0612" gradientTransform="matrix(54.5205 0 0 54.5205 2.6297 -36.17)">
				<stop  offset="0" style="stop-color:#84BDFE"/>
				<stop  offset="1" style="stop-color:#6ACAF0"/>
			</linearGradient>
			
				<rect x="141.79" y="350.53" style="clip-path:url(#SVGID_00000141427836456062779410000015546593957902124169_);fill:url(#SVGID_00000040562677975369722890000002688009448438587568_);" width="323.68" height="323.68"/>
		</g>
		<g style="clip-path:url(#SVGID_00000034072274116108435540000005253180379226173582_);">
			<defs>
				<rect id="SVGID_00000165954488951182959230000016908033073027636114_" x="77" y="338" width="401" height="401"/>
			</defs>
			<clipPath id="SVGID_00000074420688130213777130000012219800574172749498_">
				<use xlink:href="#SVGID_00000165954488951182959230000016908033073027636114_"  style="overflow:visible;"/>
			</clipPath>
			<path style="clip-path:url(#SVGID_00000074420688130213777130000012219800574172749498_);fill:#FFFFFF;" d="M312.71,621.77
				c0.27,13.67,11.57,24.54,25.24,24.27c13.67-0.27,24.54-11.57,24.27-25.24c-0.08-3.82-1.08-7.36-2.68-10.56l48.66-50.61
				c3.26,1.48,6.85,2.34,10.66,2.27c13.68-0.27,24.54-11.57,24.27-25.24c-0.26-13.68-11.57-24.54-25.24-24.27
				c-13.67,0.27-24.54,11.57-24.27,25.24c0.08,3.82,1.08,7.36,2.68,10.56l-48.65,50.61c-3.26-1.48-6.84-2.34-10.66-2.27
				C323.3,596.79,312.44,608.1,312.71,621.77"/>
			<path style="clip-path:url(#SVGID_00000074420688130213777130000012219800574172749498_);fill:#FFFFFF;" d="M283.61,589.78
				c-5.93,0-11.87-2.17-16.37-6.51c-4.45-4.3-6.89-10.03-6.87-16.12c0.02-6.1,2.51-11.81,7-16.08l84.99-80.63
				c1.18-1.13,1.84-2.59,1.85-4.14c0.01-1.55-0.64-3.02-1.82-4.15c-2.63-2.53-7.06-2.54-9.72-0.03l-84.99,80.63
				c-9.02,8.56-23.65,8.51-32.59-0.13c-4.45-4.29-6.9-10.02-6.87-16.12c0.02-6.1,2.51-11.81,7-16.08l84.99-80.63
				c1.18-1.13,1.84-2.59,1.85-4.14c0.01-1.54-0.64-3.01-1.81-4.15c-2.63-2.53-7.08-2.56-9.74-0.03l-31.87,30.23
				c-9.02,8.57-23.64,8.5-32.59-0.12l11.48-11.92c2.63,2.54,7.09,2.55,9.73,0.04l31.87-30.24c9.02-8.56,23.65-8.5,32.59,0.13
				c4.45,4.29,6.9,10.02,6.87,16.12c-0.03,6.11-2.52,11.82-7.01,16.08l-84.98,80.63c-1.18,1.12-1.84,2.59-1.85,4.14
				c-0.01,1.54,0.64,3.01,1.81,4.14c2.63,2.54,7.09,2.55,9.72,0.04l84.99-80.63c9.03-8.56,23.65-8.5,32.59,0.13
				c4.45,4.3,6.89,10.02,6.87,16.13c-0.03,6.1-2.51,11.8-7,16.07l-84.98,80.63c-1.19,1.12-1.84,2.59-1.85,4.14
				c-0.01,1.55,0.63,3.02,1.8,4.15c2.63,2.53,7.08,2.54,9.73,0.03l31.87-30.24c9.03-8.56,23.65-8.5,32.6,0.12l-11.48,11.92
				c-2.63-2.54-7.07-2.55-9.73-0.04l-31.87,30.24C295.35,587.65,289.48,589.78,283.61,589.78"/>
			
				<rect x="351.91" y="541.68" transform="matrix(0.6936 -0.7203 0.7203 0.6936 -292.8571 430.9386)" style="clip-path:url(#SVGID_00000074420688130213777130000012219800574172749498_);fill:#FFFFFF;" width="16.55" height="36.14"/>
			
				<rect x="220.57" y="415.07" transform="matrix(0.6936 -0.7203 0.7203 0.6936 -241.8957 297.5396)" style="clip-path:url(#SVGID_00000074420688130213777130000012219800574172749498_);fill:#FFFFFF;" width="16.54" height="36.14"/>
			<path style="clip-path:url(#SVGID_00000074420688130213777130000012219800574172749498_);fill:#FFFFFF;" d="M207.49,386.22
				c13.86,0,25.1,11.23,25.1,25.1c0,13.86-11.24,25.09-25.1,25.09c-13.86,0-25.1-11.23-25.1-25.09
				C182.39,397.46,193.63,386.22,207.49,386.22"/>
		</g>
	</g>
</g>
<g id="title_00000146494096431542680960000003807913399778502547_" transform="translate(0 0)">
	<path id="path210281" class="st4" d="M673.1,496.6c-3.91-3.52-8.61-5.48-14.09-5.48H558.44c-3.52,0-6.26-0.78-8.61-3.13
		c-2.35-2.35-3.13-5.09-3.13-8.61v-71.22c0-3.52,0.78-6.26,3.13-8.61c2.35-2.35,5.09-3.52,8.61-3.52h144.79
		c5.87,0,10.57-1.57,14.48-5.09c3.52-3.13,5.48-7.83,5.48-13.31c0-5.48-1.96-10.17-5.48-13.7c-3.91-3.52-8.61-5.48-14.48-5.48
		H526.35c-5.87,0-10.96,1.96-14.48,5.87c-3.91,3.91-5.87,8.61-5.87,14.48v264.93c0,5.87,1.96,10.57,5.87,14.48
		c3.91,3.91,8.61,5.87,14.48,5.87c5.48,0,10.57-1.96,14.48-5.87c3.91-3.91,5.87-8.61,5.87-14.48V540.82c0-3.52,0.78-6.26,3.13-8.61
		c2.35-2.35,5.09-3.52,8.61-3.52h100.57c5.48,0,10.17-1.57,14.09-5.09c3.91-3.52,5.87-7.83,5.87-13.7
		C678.97,504.43,677.02,500.12,673.1,496.6L673.1,496.6z"/>
	<path id="path210283" class="st5" d="M796.16,363.94c-3.91,3.91-5.48,8.61-5.48,14.09V591.7c0,14.09,2.35,26.61,7.44,37.57
		c4.7,10.96,11.74,19.57,20.74,25.83c9,6.26,19.18,9,30.52,9h0.78c7.83,0,14.09-1.57,19.18-5.48c4.7-3.52,7.44-8.22,7.44-14.09
		c0-5.48-1.96-10.17-5.09-14.09c-3.13-3.52-7.44-5.48-12.52-5.48h-9.78c-5.87,0-10.57-3.13-14.09-9.39
		c-3.91-6.26-5.48-14.09-5.48-23.87V378.03c0-5.48-1.96-10.17-5.48-14.09c-3.91-3.52-8.61-5.48-14.09-5.48
		C804.38,358.46,799.68,360.42,796.16,363.94L796.16,363.94z"/>
	<path id="path210285" class="st6" d="M1139.84,644.14V469.6c0-5.87-1.96-10.57-5.48-14.48c-3.91-3.52-8.61-5.48-14.48-5.48
		c-5.87,0-10.57,1.96-14.48,5.48c-3.91,3.91-5.48,8.61-5.48,14.48v110.36c0,9.78-2.74,18-7.83,25.44c-5.09,7.83-12.13,13.7-21.13,18
		c-9,4.7-19.18,6.65-29.74,6.65c-19.18,0-34.05-5.09-45.39-16.04C984.48,603.05,979,587,979,565.87V469.6
		c0-5.48-1.96-10.17-5.87-14.09c-3.91-3.91-8.61-5.87-14.09-5.87c-5.87,0-10.57,1.96-14.48,5.87c-3.91,3.91-5.48,8.61-5.48,14.09
		v96.27c0,21.52,3.91,39.52,12.13,54.4c7.83,14.87,19.18,26.61,33.65,34.05c13.7,7.83,28.57,11.74,45,12.13c0.78,0,30.92,0,91.57,0
		c5.09,0,9.39-1.96,12.91-5.48c3.52-3.52,5.48-7.83,5.48-13.31L1139.84,644.14z"/>
	<path id="path210287" class="st7" d="M1246.7,455.51c-3.91,3.91-5.48,8.61-5.48,14.48v174.14c0,5.87,1.57,10.57,5.48,14.48
		c3.91,3.91,8.61,5.48,14.48,5.48s10.57-1.57,14.48-5.48c3.52-3.91,5.48-8.61,5.48-14.48V469.99c0-5.87-1.96-10.57-5.48-14.48
		c-3.91-3.52-8.61-5.48-14.48-5.48S1250.62,451.99,1246.7,455.51z"/>
	<path id="path210289" class="st8" d="M1512.1,368.24c-12.52-6.65-26.61-10.17-41.48-10.17c-16.83,0-32.09,3.52-45.39,10.57
		c-13.7,7.04-24.26,16.44-32.09,28.57c-7.83,12.13-11.74,25.44-11.74,40.31c0,5.87,1.57,10.57,5.09,14.48
		c3.13,3.91,7.44,5.48,12.91,5.48c5.09,0,9.39-1.96,12.91-5.87c3.13-3.91,5.09-9,5.09-15.26c0-7.83,2.35-15.26,7.04-21.91
		c4.7-6.26,11.35-11.74,19.57-15.65c8.22-3.91,17.22-5.87,27.39-5.87c12.91,0,23.48,3.91,32.09,11.74
		c8.22,7.83,12.52,17.61,12.52,28.96c0,7.83-2.35,15.26-6.65,21.52c-4.3,6.65-9.78,11.74-16.83,15.65
		c-7.04,3.91-14.09,5.48-21.13,5.48c-5.87,0-10.57,1.96-14.48,5.87c-3.91,3.91-5.48,8.61-5.48,14.09c0,5.87,1.57,10.57,5.48,14.48
		c3.91,3.91,8.61,5.87,14.48,5.87c9.78,0,18.78,2.74,27,7.83c8.22,5.09,14.87,12.13,19.57,21.13c4.7,9,7.04,18.78,7.04,29.35
		c0,17.22-5.48,30.52-15.65,39.92c-10.57,9.78-24.65,14.48-41.87,14.48c-11.74,0-22.31-2.35-31.7-7.83
		c-9.39-5.48-16.83-12.52-22.31-21.52s-8.22-18.78-8.22-29.74c0-5.48-1.96-10.57-5.09-14.48c-3.52-3.91-7.83-5.87-12.91-5.87
		c-5.48,0-9.78,1.96-12.91,5.87c-3.52,3.91-5.09,9-5.09,14.48c0,18,4.3,34.05,12.91,48.13c8.61,14.09,20.35,25.44,35.61,33.65
		c15.26,8.22,32.48,12.13,52.05,12.13c16.83,0,32.48-3.52,46.96-11.35c14.48-7.83,26.22-18.39,34.83-32.09
		c8.61-13.31,12.91-28.57,12.91-45.39c0-18.78-5.09-35.22-14.48-49.31c-9.78-14.09-24.65-24.26-44.22-31.31
		c13.31-5.87,24.26-14.09,33.26-24.26c8.61-10.17,13.31-22.7,13.31-36.79c0-14.09-3.91-26.61-10.96-38.35
		C1534.41,383.9,1524.62,374.9,1512.1,368.24z"/>
	<path id="path210291" class="st9" d="M1633.43,556.87c0,20.74,4.7,39.13,14.09,55.57c9.39,16.44,22.7,29.74,39.13,39.13
		s34.83,14.09,54.79,14.09h1.57h0.78h86.48c5.48,0,9.78-1.57,13.31-5.09c3.91-3.91,5.48-8.22,5.48-13.31v-83.35v-7.04V378.42
		c0-5.87-1.57-10.57-5.48-14.48c-3.52-3.52-8.22-5.48-14.48-5.48c-5.48,0-10.17,1.96-14.09,5.48c-3.91,3.91-5.87,8.61-5.87,14.48
		v105.66c-9-10.96-19.96-19.57-33.26-26.22c-12.91-6.26-27-9.39-42.26-9.39c-18.78,0-35.61,4.7-50.87,14.09
		c-15.26,9.78-27.39,22.7-36,39.13C1638.13,518.13,1633.43,536.91,1633.43,556.87z M1671.79,556.87c0-13.7,3.13-26.22,9.39-37.18
		c6.26-10.96,14.48-19.96,25.05-26.22c10.57-6.26,22.31-9.78,35.22-9.78c13.31,0,25.05,3.52,35.61,9.78
		c10.57,6.26,18.78,15.26,24.65,26.22c6.26,10.96,9,23.48,9,37.18c0,14.09-2.74,26.61-9,37.57c-5.87,11.35-14.09,20.35-24.65,26.61
		c-10.57,6.26-22.31,9.39-35.61,9.39c-12.91,0-24.65-3.13-35.22-9.39c-10.57-6.26-18.78-15.26-25.05-26.61
		C1674.92,583.48,1671.79,570.96,1671.79,556.87z"/>
</g>
</svg>
