<?xml version="1.0" encoding="UTF-8"?>
<svg xmlns="http://www.w3.org/2000/svg" xmlns:xlink="http://www.w3.org/1999/xlink" width="15px" height="15px" viewBox="0 0 15 15" version="1.1">
<g id="surface1">
<path style=" stroke:none;fill-rule:nonzero;fill:rgb(0%,0%,0%);fill-opacity:1;" d="M 4.1875 4.1875 C 6.007812 2.363281 8.953125 2.355469 10.789062 4.15625 L 9.578125 5.359375 C 9.378906 5.5625 9.320312 5.867188 9.429688 6.128906 C 9.535156 6.390625 9.792969 6.5625 10.078125 6.5625 L 13.828125 6.5625 C 14.21875 6.5625 14.53125 6.25 14.53125 5.859375 L 14.53125 2.109375 C 14.53125 1.824219 14.359375 1.566406 14.097656 1.460938 C 13.835938 1.351562 13.53125 1.410156 13.328125 1.609375 L 12.109375 2.828125 C 9.542969 0.296875 5.410156 0.304688 2.859375 2.859375 C 2.144531 3.574219 1.628906 4.414062 1.3125 5.3125 C 1.140625 5.804688 1.398438 6.335938 1.882812 6.507812 C 2.371094 6.683594 2.90625 6.425781 3.078125 5.9375 C 3.304688 5.300781 3.671875 4.699219 4.1875 4.1875 Z M 0.46875 9.140625 L 0.46875 12.890625 C 0.46875 13.175781 0.640625 13.433594 0.902344 13.539062 C 1.164062 13.648438 1.46875 13.589844 1.671875 13.390625 L 2.890625 12.171875 C 5.453125 14.703125 9.589844 14.695312 12.140625 12.140625 C 12.855469 11.425781 13.375 10.585938 13.691406 9.6875 C 13.863281 9.199219 13.605469 8.664062 13.117188 8.492188 C 12.632812 8.320312 12.097656 8.578125 11.921875 9.0625 C 11.699219 9.703125 11.332031 10.304688 10.816406 10.816406 C 8.992188 12.640625 6.050781 12.648438 4.214844 10.84375 L 5.421875 9.640625 C 5.621094 9.4375 5.679688 9.132812 5.570312 8.871094 C 5.464844 8.609375 5.207031 8.4375 4.921875 8.4375 L 1.171875 8.4375 C 0.78125 8.4375 0.46875 8.75 0.46875 9.140625 Z M 0.46875 9.140625 "/>
</g>
</svg>
