<?xml version="1.0" encoding="utf-8"?>
<!-- Generator: Adobe Illustrator 26.2.1, SVG Export Plug-In . SVG Version: 6.00 Build 0)  -->
<svg version="1.1" id="图层_1" xmlns="http://www.w3.org/2000/svg" xmlns:xlink="http://www.w3.org/1999/xlink" x="0px" y="0px"
	 viewBox="0 0 64 64" style="enable-background:new 0 0 64 64;" xml:space="preserve">
<style type="text/css">
	.st0{fill:url(#id_101_00000063624897399644206150000011227749146119788721_);}
	.st1{fill:url(#id_102_00000010309053927518378910000000643427353987737776_);}
	.st2{fill:#FFFFFF;}
</style>
<g id="Layer_41">
	
		<linearGradient id="id_101_00000105409391213956781580000008004493160421316016_" gradientUnits="userSpaceOnUse" x1="2" y1="25.912" x2="56.8325" y2="25.912" gradientTransform="matrix(1 0 0 -1 0 63.89)">
		<stop  offset="0" style="stop-color:#84BDFE"/>
		<stop  offset="0.9938" style="stop-color:#6ACAF0"/>
	</linearGradient>
	<path id="id_101" style="fill:url(#id_101_00000105409391213956781580000008004493160421316016_);" d="M48.1,58H14.6
		C9.9,58,6,54.1,6,49.4V15.9c0-1.1-0.9-2-2-2s-2,0.9-2,2v33.5c0,5.9,4.1,11,9.9,12.3c-0.8,0.6,35.6,0.2,36.2,0.3c1.1,0,2-0.9,2-2
		C50.1,58.9,49.2,58,48.1,58z"/>
	
		<linearGradient id="id_102_00000123439413655085845920000005173669271398076839_" gradientUnits="userSpaceOnUse" x1="2.6297" y1="36.06" x2="57.1502" y2="36.06" gradientTransform="matrix(1 0 0 -1 0 63.89)">
		<stop  offset="0" style="stop-color:#84BDFE"/>
		<stop  offset="1" style="stop-color:#6ACAF0"/>
	</linearGradient>
	<path id="id_102" style="fill:url(#id_102_00000123439413655085845920000005173669271398076839_);" d="M56.5,2H15.8
		c-3,0-5.5,2.4-5.5,5.5v40.7c0,3,2.4,5.5,5.5,5.5h40.7c3,0,5.5-2.4,5.5-5.5V7.5C62,4.4,59.6,2,56.5,2z"/>
</g>
<g>
	<path class="st2" d="M37.6,45.3c0,2.2,1.8,3.9,4,3.9c2.2,0,3.9-1.8,3.9-4c0-0.6-0.2-1.2-0.4-1.7l7.8-8.1c0.5,0.2,1.1,0.4,1.7,0.4
		c2.2,0,3.9-1.8,3.9-4c0-2.2-1.8-3.9-4-3.9c-2.2,0-3.9,1.8-3.9,4c0,0.6,0.2,1.2,0.4,1.7l-7.8,8.1c-0.5-0.2-1.1-0.4-1.7-0.4
		C39.3,41.3,37.6,43.1,37.6,45.3z"/>
	<g>
		<g transform="translate(0 0) rotate(0 10000 7500)">
			<g>
				<path class="st2" d="M33,40.2c-0.9,0-1.9-0.3-2.6-1c-0.7-0.7-1.1-1.6-1.1-2.6s0.4-1.9,1.1-2.6l13.6-12.9
					c0.2-0.2,0.3-0.4,0.3-0.7c0-0.2-0.1-0.5-0.3-0.7c-0.4-0.4-1.1-0.4-1.6,0L28.8,32.7c-1.4,1.4-3.8,1.4-5.2,0
					c-0.7-0.7-1.1-1.6-1.1-2.6c0-1,0.4-1.9,1.1-2.6l13.6-12.9c0.2-0.2,0.3-0.4,0.3-0.7s-0.1-0.5-0.3-0.7c-0.4-0.4-1.1-0.4-1.6,0
					l-5.1,4.8c-1.4,1.4-3.8,1.4-5.2,0l1.8-1.9c0.4,0.4,1.1,0.4,1.6,0l5.1-4.8c1.4-1.4,3.8-1.4,5.2,0c0.7,0.7,1.1,1.6,1.1,2.6
					c0,1-0.4,1.9-1.1,2.6L25.5,29.4c-0.2,0.2-0.3,0.4-0.3,0.7c0,0.2,0.1,0.5,0.3,0.7c0.4,0.4,1.1,0.4,1.6,0l13.6-12.9
					c1.4-1.4,3.8-1.4,5.2,0c0.7,0.7,1.1,1.6,1.1,2.6c0,1-0.4,1.9-1.1,2.6L32.2,35.9c-0.2,0.2-0.3,0.4-0.3,0.7s0.1,0.5,0.3,0.7
					c0.4,0.4,1.1,0.4,1.6,0l5.1-4.8c1.4-1.4,3.8-1.4,5.2,0l-1.8,1.9c-0.4-0.4-1.1-0.4-1.6,0l-5.1,4.8C34.8,39.8,33.9,40.2,33,40.2z"
					/>
			</g>
		</g>
		<g id="channel-2_00000037677717539731297900000004509473110263043201_">
			<g>
				
					<rect x="43.9" y="32.5" transform="matrix(0.6936 -0.7204 0.7204 0.6936 -11.6468 43.4008)" class="st2" width="2.6" height="5.8"/>
			</g>
		</g>
		<g id="channel-2_00000083074076954480495340000001682954064227052931_">
			<g>
				
					<rect x="22.9" y="12.3" transform="matrix(0.6936 -0.7204 0.7204 0.6936 -3.5132 22.1091)" class="st2" width="2.6" height="5.8"/>
			</g>
		</g>
	</g>
	<circle class="st2" cx="20.8" cy="11.7" r="4"/>
</g>
</svg>
